<svg width="41" height="41" viewBox="0 0 41 41" fill="none" xmlns="http://www.w3.org/2000/svg">
<path d="M10.8685 10.1801L1.4043 19.6618L10.7812 29.0387" stroke="white" stroke-width="2" stroke-miterlimit="10"/>
<path d="M1.4043 19.6623H27.5968" stroke="white" stroke-width="2" stroke-miterlimit="10"/>
<path d="M20.5 41C31.8218 41 41 31.8218 41 20.5C41 9.17816 31.8218 0 20.5 0C9.17816 0 0 9.17816 0 20.5C0 31.8218 9.17816 41 20.5 41Z" fill="#FAA51A"/>
<path d="M28 20.75C28.4142 20.75 28.75 20.4142 28.75 20C28.75 19.5858 28.4142 19.25 28 19.25L28 20.75ZM12.4697 19.4697C12.1768 19.7626 12.1768 20.2374 12.4697 20.5303L17.2426 25.3033C17.5355 25.5962 18.0104 25.5962 18.3033 25.3033C18.5962 25.0104 18.5962 24.5355 18.3033 24.2426L14.0607 20L18.3033 15.7574C18.5962 15.4645 18.5962 14.9896 18.3033 14.6967C18.0104 14.4038 17.5355 14.4038 17.2426 14.6967L12.4697 19.4697ZM28 19.25L13 19.25L13 20.75L28 20.75L28 19.25Z" fill="white"/>
</svg>
