<svg width="8" height="25" viewBox="0 0 8 25" fill="none" xmlns="http://www.w3.org/2000/svg">
<path d="M6.91838 0.735998L6.27838 16.064H1.63838L0.998375 0.735998H6.91838ZM4.03838 24.256C3.07838 24.256 2.28904 23.9787 1.67038 23.424C1.07304 22.848 0.774375 22.144 0.774375 21.312C0.774375 20.4587 1.07304 19.744 1.67038 19.168C2.28904 18.592 3.07838 18.304 4.03838 18.304C4.97704 18.304 5.74504 18.592 6.34238 19.168C6.96104 19.744 7.27038 20.4587 7.27038 21.312C7.27038 22.144 6.96104 22.848 6.34238 23.424C5.74504 23.9787 4.97704 24.256 4.03838 24.256Z" fill="white"/>
</svg>
