<svg viewBox="0 0 30.27 30.12" xmlns="http://www.w3.org/2000/svg"><rect fill="#1d3462" height="30.12" rx="15.06" width="30.27"/><g fill="none" stroke="#fff" stroke-miterlimit="10" stroke-width=".8"><rect height="12.72" rx="1.04" width="12.72" x="8.78" y="11.43"/><path d="m102.59 41.27h-15.68c-1.16 0-1.91-.92-1.37-1.69l2.46-3.43a1.67 1.67 0 0 1 1.37-.62h10.85a1.65 1.65 0 0 1 1.36.62l2.42 3.43c.5.77-.25 1.69-1.41 1.69z" transform="translate(-79.62 -29.84)"/><path d="m14.52 16.08h1.15a2.81 2.81 0 0 1 2.81 2.81v5.25a0 0 0 0 1 0 0h-6.77a0 0 0 0 1 0 0v-5.25a2.81 2.81 0 0 1 2.81-2.81z"/></g></svg>