<svg width="27" height="27" viewBox="0 0 27 27" fill="none" xmlns="http://www.w3.org/2000/svg">
<g clip-path="url(#clip0_2_2853)">
<path d="M13.4864 16.7714C15.3224 16.7714 16.8108 15.3007 16.8108 13.4865C16.8108 11.6723 15.3224 10.2017 13.4864 10.2017C11.6505 10.2017 10.1621 11.6723 10.1621 13.4865C10.1621 15.3007 11.6505 16.7714 13.4864 16.7714Z" fill="#1D3462"/>
<path d="M12.5945 2.01911e-06C9.62233 0.160549 6.78433 1.27492 4.5113 3.17394C2.23826 5.07297 0.654327 7.65296 -8.71914e-05 10.5223C-0.0122628 10.5811 -0.0108905 10.642 0.00395433 10.7002C0.0187991 10.7585 0.046738 10.8127 0.0856713 10.8589C0.124605 10.9051 0.173545 10.942 0.228877 10.9669C0.28421 10.9919 0.344498 11.0042 0.405302 11.003H6.48638C6.57641 11.0024 6.66451 10.9771 6.74085 10.9299C6.8172 10.8828 6.87881 10.8156 6.91883 10.7359C7.44367 9.52165 8.31182 8.48276 9.41918 7.7438C10.5266 7.00485 11.8261 6.59721 13.1621 6.56974C14.4338 6.52811 15.693 6.82978 16.8042 7.44234C17.9154 8.05491 18.8366 8.95518 19.4688 10.0464C20.101 11.1375 20.4202 12.3784 20.3922 13.6354C20.3641 14.8924 19.9898 16.1181 19.3096 17.1807C18.6293 18.2433 17.6688 19.1025 16.5313 19.6661C15.3939 20.2296 14.1225 20.4762 12.8538 20.3792C11.5852 20.2822 10.3673 19.8453 9.33107 19.1155C8.29489 18.3858 7.4796 17.3907 6.97287 16.2374C6.94352 16.1761 6.89783 16.1238 6.8407 16.0861C6.78356 16.0485 6.71715 16.0269 6.64856 16.0237H0.37829C0.32446 16.0223 0.271004 16.0331 0.222073 16.0553C0.173141 16.0775 0.130041 16.1106 0.0960844 16.1519C0.0621275 16.1932 0.0382343 16.2416 0.0262445 16.2935C0.0142548 16.3454 0.0144785 16.3993 0.026925 16.4511C0.616884 18.9503 1.91627 21.2314 3.77248 23.0264C5.6287 24.8214 7.96469 26.0558 10.5061 26.5847C13.0476 27.1136 15.689 26.9149 18.1202 26.0121C20.5514 25.1093 22.6714 23.5398 24.2314 21.4879C25.7913 19.436 26.7264 16.9869 26.9268 14.4281C27.1272 11.8694 26.5846 9.3073 25.3627 7.04267C24.1408 4.77804 22.2904 2.90491 20.0287 1.64322C17.7671 0.381543 15.188 -0.216304 12.5945 -0.0801134V2.01911e-06Z" fill="#F9A31A"/>
</g>
<defs>
<clipPath id="clip0_2_2853">
<rect width="27" height="27" fill="white"/>
</clipPath>
</defs>
</svg>
