<svg width="27" height="27" viewBox="0 0 27 27" fill="none" xmlns="http://www.w3.org/2000/svg">
<path d="M5.83011 3.18747C3.18953 4.89205 1.27137 7.51968 0.446289 10.5626C-0.378795 13.6056 -0.0522412 16.8479 1.36285 19.663C2.55237 21.725 4.24047 23.452 6.27078 24.684C8.3011 25.916 10.608 26.6132 12.9777 26.7111C16.3158 26.9086 19.6012 25.8058 22.1511 23.6321C24.7011 21.4584 26.3194 18.3808 26.6699 15.0391C26.9159 12.8139 26.5529 10.5635 25.62 8.53041C24.6872 6.4973 23.2198 4.7586 21.3762 3.50172C21.3762 3.50172 19.9467 2.06516 19.1426 3.50172V5.74634C19.1404 6.05088 19.2126 6.3513 19.3528 6.62131C19.493 6.89132 19.6969 7.12267 19.9467 7.29512C20.9906 8.15819 21.8046 9.26857 22.3153 10.5263C22.8261 11.7841 23.0176 13.1497 22.8727 14.5003C22.6207 16.8661 21.5119 19.0562 19.7574 20.6538C18.0028 22.2514 15.725 23.145 13.3574 23.1646C11.0158 23.0844 8.7801 22.1644 7.05515 20.5709C5.3302 18.9775 4.23004 16.816 3.95386 14.4779C3.76836 13.1046 3.94043 11.7065 4.45328 10.42C4.96614 9.13355 5.80224 8.00273 6.87992 7.138C6.87992 7.138 7.70636 7.138 7.75104 5.3872V3.59151C7.75104 3.59151 7.46066 1.90804 5.83011 3.18747Z" fill="#F9A31A"/>
<path d="M13.9828 0H12.9106C12.1581 0 11.5481 0.613018 11.5481 1.36922V14.0289C11.5481 14.7851 12.1581 15.3981 12.9106 15.3981H13.9828C14.7352 15.3981 15.3453 14.7851 15.3453 14.0289V1.36922C15.3453 0.613018 14.7352 0 13.9828 0Z" fill="#F9A31A"/>
</svg>
