<svg width="66" height="66" viewBox="0 0 66 66" fill="none" xmlns="http://www.w3.org/2000/svg">
<path opacity="0.66" d="M48.9242 65.0179H17.8102C8.36869 65.0179 0.858398 57.3265 0.858398 48.1395V17.1603C0.858398 7.75973 8.58327 0.281982 17.8102 0.281982H48.7097C58.1512 0.281982 65.6615 7.97338 65.6615 17.1603V47.9259C65.876 57.3265 58.1512 65.0179 48.9242 65.0179Z" fill="#1C3563" stroke="#1D3463" stroke-width="0.5" stroke-miterlimit="10"/>
<path d="M33.4746 60.7448C48.9992 60.7448 61.5845 48.2141 61.5845 32.7567C61.5845 17.2993 48.9992 4.76855 33.4746 4.76855C17.9499 4.76855 5.36462 17.2993 5.36462 32.7567C5.36462 48.2141 17.9499 60.7448 33.4746 60.7448Z" stroke="#FAA51C" stroke-miterlimit="10"/>
<path d="M19.0977 31.2611L13.3041 34.8932L23.8185 46.003C23.8185 46.003 37.1224 25.7062 57.5075 24.638C57.5075 24.638 38.6245 18.4422 24.2476 38.3116L19.0977 31.2611Z" fill="#FAA61E"/>
</svg>
