<svg width="67" height="67" viewBox="0 0 67 67" fill="none" xmlns="http://www.w3.org/2000/svg">
<path d="M25.8231 8.375C14.6699 8.375 5.5835 17.4614 5.5835 28.6146C5.5835 39.7678 14.6699 48.8542 25.8231 48.8542C30.6476 48.8542 35.0826 47.1499 38.5655 44.3177L52.2594 58.0116C52.4523 58.2125 52.6834 58.373 52.9391 58.4835C53.1948 58.594 53.47 58.6524 53.7486 58.6552C54.0271 58.658 54.3034 58.6053 54.5613 58.5C54.8192 58.3947 55.0535 58.239 55.2505 58.042C55.4475 57.845 55.6032 57.6107 55.7085 57.3528C55.8138 57.0949 55.8665 56.8186 55.8637 56.5401C55.8609 56.2615 55.8025 55.9863 55.692 55.7306C55.5815 55.4749 55.421 55.2438 55.2201 55.0509L41.5262 41.357C44.3584 37.8741 46.0627 33.4391 46.0627 28.6146C46.0627 17.4614 36.9763 8.375 25.8231 8.375ZM25.8231 12.5625C34.7132 12.5625 41.8752 19.7245 41.8752 28.6146C41.8752 32.9453 40.1669 36.858 37.396 39.7404C37.2251 39.8659 37.0744 40.0167 36.9489 40.1875C34.0665 42.9584 30.1538 44.6667 25.8231 44.6667C16.933 44.6667 9.771 37.5047 9.771 28.6146C9.771 19.7245 16.933 12.5625 25.8231 12.5625Z" fill="#0F1E35" fill-opacity="0.8"/>
</svg>
