<svg viewBox="0 0 7.33 6.78" xmlns="http://www.w3.org/2000/svg"><g fill="#f7a21d" transform="translate(-91.01 -41.62)"><path d="m96.08 42.74v-.74s0-.57.52-.21l1.61 1.6a.31.31 0 0 1 0 .5l-1.58 1.57s-.26.38-.5 0v-1a5.09 5.09 0 0 0 -2.36.38s-.73.35-.64 1.8c0 0 .11.59 0 .64s-.14.12-.31-.22a3 3 0 0 1 -.35-3s.58-1.54 3.61-1.32z"/><path d="m92.73 42.74h-.49s-.63.1-.66.64v3.76a.81.81 0 0 0 .58.68h3.89s.41 0 .61-.54v-1.06s0-.13.19-.23c0 0 .22-.3.37-.06v1.17a1.16 1.16 0 0 1 -.6 1.12 1.36 1.36 0 0 1 -.73.18h-3.67a1.31 1.31 0 0 1 -1.22-1.12v-3.9a1.3 1.3 0 0 1 .8-1.11 3 3 0 0 1 .87-.08h.67s.17 0 .2.13z"/></g></svg>