<svg viewBox="0 0 30.27 30.12" xmlns="http://www.w3.org/2000/svg"><rect fill="#1d3462" height="30.12" rx="15.06" width="30.27"/><g fill="none" stroke="#fff" stroke-miterlimit="10" stroke-width=".4" transform="translate(-79.62 -29.84)"><path d="m86.82 38.14-1.2 16.21 13.23 1.25 4.48-1.14-1.2-16.73-1.61.49.3 14.41 1.73 1.09-.11.16-1.75-.94-1.22 1.61-.17-.09 1.21-1.78-.3-14.45-1-.1h-1.31a6.51 6.51 0 0 0 -.77-3.91 2.41 2.41 0 0 0 -2.91-.76l.52.52a2 2 0 0 1 1.43.24s1.33.76 1.07 3.91h-2.33s.38-3.28-1-4.52a2.58 2.58 0 0 0 -2.8 0s-1.7.87-1.74 4.5z"/><path d="m94.07 38.09s.33-2.9-.74-3.81a1.64 1.64 0 0 0 -2.1.29s-1 .87-1.06 3.52h2.34a10.29 10.29 0 0 1 .62-3.55 1.33 1.33 0 0 1 .43.76 9.07 9.07 0 0 0 -.4 2.79z"/><path d="m87.44 38.78-1.11 15 12.17 1.13.18-16.13h-3.77v.6s.75-.31 1 .7c0 0 0 1-.77 1a.72.72 0 0 1 -.71-.59s-.54-.31-.35-1.67h-4s.13.6.46.69c0 0 .55-.62 1 .31 0 0 .31 1-.67 1.21a.72.72 0 0 1 -.71-.78 1.61 1.61 0 0 1 -.9-1.43z"/></g></svg>