<svg width="78" height="78" viewBox="0 0 78 78" fill="none" xmlns="http://www.w3.org/2000/svg">
<g clip-path="url(#clip0_20_416)">
<path d="M7.37977 25.7367C7.37977 25.7367 4.0925 8.64667 24.3081 6.75028C24.3081 6.75028 38.9107 -8.44335 53.3792 6.75028C53.3792 6.75028 70.7771 5.8021 70.7771 23.3662C70.7771 23.3662 86.7662 40.9529 70.7771 53.2794C70.7771 53.2794 74.0644 70.392 54.3184 70.392C54.3184 70.392 40.6774 87.482 24.6882 70.392C24.6882 70.392 4.56209 72.2884 7.06668 51.8571C7.17849 51.8571 -9.10131 38.5598 7.37977 25.7367Z" fill="#6FC071"/>
<path d="M26.1638 35.6925L30.6363 40.2077C31.1838 40.7662 31.9225 41.0915 32.7004 41.1167C33.4784 41.1419 34.2362 40.8651 34.8181 40.3431L50.4717 26.2106C51.0366 25.6886 51.7745 25.3992 52.5403 25.3992C53.306 25.3992 54.0439 25.6886 54.6088 26.2106L56.5096 28.0844C56.7984 28.3509 57.0291 28.6753 57.1869 29.0367C57.3447 29.3982 57.4262 29.7889 57.4262 30.184C57.4262 30.579 57.3447 30.9697 57.1869 31.3312C57.0291 31.6927 56.7984 32.017 56.5096 32.2835L35.3995 51.7214C34.8347 52.2434 34.0967 52.5329 33.331 52.5329C32.5652 52.5329 31.8273 52.2434 31.2624 51.7214L20.4391 41.1333C20.1497 40.8648 19.9186 40.5385 19.7606 40.1751C19.6026 39.8118 19.521 39.4193 19.521 39.0225C19.521 38.6256 19.6026 38.2331 19.7606 37.8698C19.9186 37.5064 20.1497 37.1802 20.4391 36.9116L21.915 35.5796C22.4976 35.0346 23.2682 34.7413 24.0622 34.7624C24.8562 34.7835 25.6105 35.1173 26.1638 35.6925Z" fill="white"/>
</g>
<defs>
<clipPath id="clip0_20_416">
<rect width="78" height="78" fill="white"/>
</clipPath>
</defs>
</svg>
