<svg width="24" height="17" viewBox="0 0 24 17" fill="none" xmlns="http://www.w3.org/2000/svg">
<path d="M4.20596 6.44905L7.03775 9.27794C7.3844 9.62786 7.85214 9.83169 8.34468 9.84748C8.83723 9.86326 9.31709 9.6898 9.68548 9.36281L19.5967 0.508376C19.9544 0.181366 20.4216 0 20.9064 0C21.3913 0 21.8585 0.181366 22.2161 0.508376L23.4197 1.68237C23.6025 1.84936 23.7486 2.05256 23.8485 2.27904C23.9484 2.50552 24 2.7503 24 2.9978C24 3.2453 23.9484 3.49009 23.8485 3.71656C23.7486 3.94304 23.6025 4.14625 23.4197 4.31323L10.0536 16.4916C9.69598 16.8186 9.22873 17 8.74391 17C8.25908 17 7.79183 16.8186 7.4342 16.4916L0.581278 9.85787C0.398049 9.68961 0.251777 9.4852 0.15172 9.25755C0.051663 9.0299 0 8.78398 0 8.53536C0 8.28673 0.051663 8.04082 0.15172 7.81317C0.251777 7.58553 0.398049 7.38111 0.581278 7.21285L1.51577 6.37833C1.88463 6.03686 2.37257 5.85309 2.87529 5.8663C3.37801 5.87952 3.85559 6.08867 4.20596 6.44905Z" fill="white"/>
</svg>
