<svg width="45" height="47" viewBox="0 0 45 47" fill="none" xmlns="http://www.w3.org/2000/svg">
<path d="M14.2 46.5737H32C32.8487 46.5737 33.6627 46.2343 34.2628 45.6302C34.8629 45.0261 35.2 44.2068 35.2 43.3525V33.7293C35.1947 33.3029 35.2736 32.8797 35.432 32.4842C35.5905 32.0888 35.8253 31.7289 36.123 31.4255C36.4207 31.1222 36.7752 30.8813 37.1661 30.7169C37.557 30.5525 37.9764 30.4678 38.4 30.4679H41.8C42.3501 30.3981 42.8728 30.1856 43.3167 29.8513C43.7607 29.5169 44.1107 29.0722 44.3325 28.5607C44.5543 28.0492 44.6403 27.4884 44.582 26.9334C44.5238 26.3783 44.3232 25.8481 44 25.3946L24.96 1.23591C24.6607 0.850916 24.2782 0.539557 23.8416 0.325425C23.405 0.111293 22.9257 0 22.44 0C21.9543 0 21.475 0.111293 21.0384 0.325425C20.6018 0.539557 20.2194 0.850916 19.92 1.23591L0.880019 25.3946C0.502028 25.8698 0.265543 26.4431 0.197982 27.048C0.130421 27.653 0.234536 28.2648 0.498275 28.8126C0.762014 29.3605 1.17459 29.8218 1.68816 30.1433C2.20172 30.4648 2.79526 30.6331 3.40001 30.6289H8.00001C8.42363 30.6289 8.84303 30.7135 9.2339 30.8779C9.62477 31.0423 9.97935 31.2832 10.277 31.5866C10.5747 31.89 10.8096 32.2498 10.968 32.6453C11.1264 33.0408 11.2053 33.464 11.2 33.8904V43.5136C11.2379 44.306 11.565 45.0565 12.1186 45.6211C12.6722 46.1858 13.4134 46.525 14.2 46.5737Z" fill="black"/>
</svg>
